<svg xmlns="http://www.w3.org/2000/svg" width="19" height="18"><path d="M 9.6 17.4C 4.64 17.4 0.62 13.63 0.62 9 0.62 4.36 4.64 0.6 9.6 0.6 14.55 0.6 18.57 4.36 18.57 9 18.57 13.63 14.55 17.4 9.6 17.4ZM 9.6 2.38C 5.7 2.38 2.53 5.35 2.53 9 2.53 12.64 5.7 15.61 9.6 15.61 13.49 15.61 16.66 12.64 16.66 9 16.66 5.35 13.49 2.38 9.6 2.38ZM 14.27 10.12C 14.27 10.12 9.5 10.12 9.5 10.12 9.09 10.12 8.76 9.81 8.76 9.43 8.76 9.43 8.76 4.2 8.76 4.2 8.76 3.82 9.09 3.51 9.5 3.51 9.91 3.51 10.24 3.82 10.24 4.2 10.24 4.2 10.24 8.74 10.24 8.74 10.24 8.74 14.27 8.74 14.27 8.74 14.68 8.74 15.01 9.05 15.01 9.43 15.01 9.81 14.68 10.12 14.27 10.12Z" fill="#FFF"/></svg>